<svg width="12" height="11" viewBox="0 0 12 11" fill="none" xmlns="http://www.w3.org/2000/svg">
<path fill-rule="evenodd" clip-rule="evenodd" d="M0.303 4.2505L4.021 0.3195C4.425 -0.1065 5.079 -0.1065 5.482 0.3195C5.886 0.7465 5.886 1.4375 5.482 1.8645L3.527 3.9305H10.967C11.538 3.9305 12 4.4195 12 5.0225C12 5.6255 11.538 6.1145 10.967 6.1145H3.527L5.482 8.1815C5.886 8.6075 5.886 9.2995 5.482 9.7255C5.281 9.9385 5.016 10.0455 4.752 10.0455C4.487 10.0455 4.223 9.9385 4.021 9.7255L0.303 5.7945C-0.101 5.3685 -0.101 4.6765 0.303 4.2505Z" fill="#256469"/>
</svg>
