<svg width="60" height="53" viewBox="0 0 60 53" fill="none" xmlns="http://www.w3.org/2000/svg">
<path d="M52.5 12.623H47.4961V7.57143C47.4961 3.39531 44.1328 0 39.9961 0H7.5C3.36328 0 0 3.39531 0 7.57143V32.8056C0 36.9817 3.36328 40.377 7.5 40.377H12.5039V45.4286C12.5039 49.6047 15.8672 53 20.0039 53H52.5C56.6367 53 60 49.6047 60 45.4286V20.1944C60 16.0183 56.6367 12.623 52.5 12.623ZM5.00391 7.57143C5.00391 6.17545 6.12891 5.05156 7.5 5.05156H39.9961C41.3789 5.05156 42.4922 6.18728 42.4922 7.57143V23.9092L32.7188 16.7163C32.0508 16.2194 31.1836 16.0893 30.4102 16.3732L5.00391 25.4589V7.57143ZM7.5 35.3373C6.11719 35.3373 5.00391 34.2016 5.00391 32.8174V30.8181L30.8438 21.5786L42.5039 30.1674V32.8174C42.5039 34.2134 41.3789 35.3373 40.0078 35.3373H7.5ZM54.9961 45.4286C54.9961 46.8246 53.8711 47.9484 52.5 47.9484H20.0039C18.6211 47.9484 17.5078 46.8127 17.5078 45.4286V40.377H40.0078C44.1445 40.377 47.5078 36.9817 47.5078 32.8056V17.6627H52.5C53.8828 17.6627 54.9961 18.7984 54.9961 20.1826V45.4286Z" fill="#256469"/>
</svg>
