<svg width="15" height="15" viewBox="0 0 15 15" fill="none" xmlns="http://www.w3.org/2000/svg">
<path d="M14.3192 2.49902H12.9544H10.9088V0.624023C10.9088 0.28125 10.6052 0 10.228 0H4.772C4.39484 0 4.0912 0.28125 4.0912 0.624023V2.49902H2.0456H0.680801C0.303644 2.49902 0 2.78027 0 3.12598C0 3.47168 0.303644 3.75 0.680801 3.75H1.3616V13.125C1.3616 14.1592 2.27893 15 3.4072 15H11.5896C12.7179 15 13.6352 14.1592 13.6352 13.125V3.75H14.3192C14.6964 3.75 15 3.46875 15 3.12598C15 2.7832 14.6964 2.49902 14.3192 2.49902ZM5.456 1.25098H9.5472V2.50195H5.456V1.25098ZM12.2736 13.125C12.2736 13.4707 11.9668 13.749 11.5928 13.749H3.4104C3.03324 13.749 2.7296 13.4678 2.7296 13.125V3.75H4.7752H10.228H12.2736V13.125Z" fill="black"/>
<path d="M5.45619 5.00146C5.07903 5.00146 4.77539 5.28271 4.77539 5.62549V11.2505C4.77539 11.5962 5.07903 11.8745 5.45619 11.8745C5.83335 11.8745 6.13699 11.5962 6.13699 11.2505V5.62549C6.13699 5.27979 5.83335 5.00146 5.45619 5.00146Z" fill="black"/>
<path d="M9.54701 5.00146C9.16986 5.00146 8.86621 5.28271 8.86621 5.62549V11.2505C8.86621 11.5962 9.16986 11.8745 9.54701 11.8745C9.92417 11.8745 10.2278 11.5962 10.2278 11.2505V5.62549C10.2278 5.27979 9.92417 5.00146 9.54701 5.00146Z" fill="black"/>
</svg>
