<svg width="60" height="60" viewBox="0 0 60 60" fill="none" xmlns="http://www.w3.org/2000/svg">
<path d="M50.9531 20.168H42.2461C43.1953 18.1641 43.8164 16.0312 43.8633 13.8633C43.875 6.22266 37.6523 0 30 0C22.3477 0 16.125 6.22266 16.125 13.875C16.1719 16.043 16.793 18.1758 17.7422 20.1797H9.04688L0 60H60L50.9531 20.168ZM19.6406 13.875C19.6406 8.16797 24.2812 3.51562 30 3.51562C35.7188 3.51562 40.3594 8.15625 40.3594 13.875C40.5117 19.4531 33.4102 26.707 30 29.4727C26.5898 26.6953 19.4883 19.4531 19.6406 13.875ZM11.8477 23.6836H19.8047C23.543 29.0977 28.9336 33.1172 30 33.9375C31.0664 33.1172 36.457 29.0977 40.1953 23.6836H48.1406L49.1719 28.2422H42.1875L38.1562 36.293H8.97656L11.8477 23.6836ZM4.40625 56.4844L6.35156 47.8945H16.957L22.6875 56.4844H4.40625ZM26.9062 56.4844L18.832 44.3789H7.14844L8.17969 39.8086H40.3242L44.3555 31.7578H49.9688L51 36.293H47.1914L43.1602 44.3789H24.6094L32.6719 56.4844H26.9062ZM31.1719 47.8945H45.3516L49.3828 39.8086H51.8086L55.5938 56.4844H36.9023L31.1719 47.8945ZM30 19.6289C33.1992 19.6289 35.7891 17.0273 35.7891 13.8398C35.7891 10.6523 33.1992 8.03906 30 8.03906C26.8008 8.03906 24.2109 10.6406 24.2109 13.8281C24.2109 17.0156 26.8008 19.6289 30 19.6289ZM30 11.5547C31.2539 11.5547 32.2734 12.5742 32.2734 13.8281C32.2734 15.082 31.2539 16.1016 30 16.1016C28.7461 16.1016 27.7266 15.082 27.7266 13.8281C27.7266 12.5742 28.7461 11.5547 30 11.5547Z" fill="#256469"/>
</svg>
