<svg width="61" height="50" viewBox="0 0 61 50" fill="none" xmlns="http://www.w3.org/2000/svg">
<path d="M52.6055 9.1037H33.6211C32.8477 9.1037 32.0977 8.79214 31.582 8.26133L25.6523 2.11086C24.2227 0.714598 22.2773 -0.0123806 20.2969 -0.000841303H7.39453C3.31641 -0.000841303 0 3.26479 0 7.28048V42.7178C0 46.7335 3.31641 49.9991 7.39453 49.9991H52.6406H52.6523C56.7305 49.9761 60.0234 46.6989 60.0117 42.6947V16.385C60 12.3693 56.6836 9.1037 52.6055 9.1037ZM55.4766 42.7063C55.4883 44.2641 54.1992 45.5449 52.6289 45.5449H7.39453C5.8125 45.5449 4.52344 44.2756 4.52344 42.7178V7.28048C4.52344 5.72267 5.8125 4.45334 7.39453 4.45334H20.3672C20.3906 4.45334 20.4141 4.45334 20.4375 4.45334C21.1875 4.45334 21.9258 4.75337 22.418 5.22648L28.3125 11.3423C29.6953 12.7501 31.6289 13.5579 33.6211 13.5579H52.6172C54.1992 13.5579 55.4883 14.8272 55.4883 16.385L55.4766 42.7063Z" fill="#256469"/>
</svg>
