<svg width="60" height="60" viewBox="0 0 60 60" fill="none" xmlns="http://www.w3.org/2000/svg">
<path d="M0 56.4844H60V60H0V56.4844Z" fill="#256469"/>
<path d="M60 48.4102H55.9688V27.7266H60V21.2109L46.8633 8.07422H27.7266V0H16.1367V8.07422H13.1367L0 21.1992V27.7148H4.03125V48.4102H0V51.9258H60V48.4102ZM45.4102 11.5898L56.4844 22.6641V24.2109H42.832L30.2109 11.5898H45.4102ZM19.6523 3.51562H24.2109V8.07422H19.6523V3.51562ZM3.51562 24.2109V22.6641L14.5898 11.5898H29.7891L17.168 24.2109H3.51562ZM7.54688 35.7891H12.1055V40.3477H7.54688V35.7891ZM36.3164 48.4102H23.6836V35.7891H36.3047V48.4102H36.3164ZM52.4531 40.3477H47.8945V35.7891H52.4531V40.3477ZM52.4531 32.2734H44.3789V43.8633H52.4531V48.4219H39.832V32.2734H20.168V48.4102H7.54688V43.8516H15.6211V32.2617H7.54688V27.7031H18.6211L30 16.3242L41.3789 27.7031H52.4531V32.2734Z" fill="#256469"/>
<path d="M25.9688 24.2109H34.043V27.7266H25.9688V24.2109Z" fill="#256469"/>
</svg>
