<svg width="60" height="60" viewBox="0 0 60 60" fill="none" xmlns="http://www.w3.org/2000/svg">
<path d="M20.168 16.1367H23.6836V19.6523H20.168V16.1367Z" fill="#256469"/>
<path d="M20.168 24.2109H23.6836V27.7266H20.168V24.2109Z" fill="#256469"/>
<path d="M36.3164 24.2109H39.832V27.7266H36.3164V24.2109Z" fill="#256469"/>
<path d="M44.3789 24.2109H47.8945V27.7266H44.3789V24.2109Z" fill="#256469"/>
<path d="M36.3164 32.2734H39.832V35.7891H36.3164V32.2734Z" fill="#256469"/>
<path d="M44.3789 32.2734H47.8945V35.7891H44.3789V32.2734Z" fill="#256469"/>
<path d="M36.3164 40.3477H39.832V43.8633H36.3164V40.3477Z" fill="#256469"/>
<path d="M44.3789 40.3477H47.8945V43.8633H44.3789V40.3477Z" fill="#256469"/>
<path d="M36.3164 48.4102H39.832V51.9258H36.3164V48.4102Z" fill="#256469"/>
<path d="M44.3789 48.4102H47.8945V51.9258H44.3789V48.4102Z" fill="#256469"/>
<path d="M12.1055 24.2109H15.6211V27.7266H12.1055V24.2109Z" fill="#256469"/>
<path d="M20.168 32.2734H23.6836V35.7891H20.168V32.2734Z" fill="#256469"/>
<path d="M12.1055 32.2734H15.6211V35.7891H12.1055V32.2734Z" fill="#256469"/>
<path d="M20.168 40.3477H23.6836V43.8633H20.168V40.3477Z" fill="#256469"/>
<path d="M12.1055 40.3477H15.6211V43.8633H12.1055V40.3477Z" fill="#256469"/>
<path d="M55.9688 56.4844V16.1367H31.7578V7.74609L27.7266 8.41406V0H8.07422V11.6953L4.04297 12.3633V56.4844H0V60H60V56.4844H55.9688ZM52.4531 19.6523V56.4844H31.7578V19.6523H52.4531ZM11.5898 3.51562H24.2109V9.01172L11.5898 11.1211V3.51562ZM7.54688 15.3516L28.2422 11.9062V16.1484V56.4844H23.6836V48.4102H12.0938V56.4844H7.54688V15.3516ZM20.168 56.4844H15.6094V51.9258H20.168V56.4844Z" fill="#256469"/>
</svg>
