<svg width="60" height="60" viewBox="0 0 60 60" fill="none" xmlns="http://www.w3.org/2000/svg">
<path d="M33.0023 26.9979H26.998V44.9965H33.0023V26.9979Z" fill="#EBEBEB"/>
<path d="M29.993 0C13.4286 0 0 13.4286 0 29.993C0 46.5573 13.4286 59.9859 29.993 59.9859C46.5573 59.9859 59.9859 46.5573 59.9859 29.993C59.9859 13.4286 46.5714 0 29.993 0ZM29.993 53.9958C16.7612 53.9958 5.99016 43.2248 5.99016 29.993C5.99016 16.7612 16.7753 6.00422 29.993 6.00422C43.2107 6.00422 53.9958 16.7753 53.9958 29.993C53.9958 43.2107 43.2248 53.9958 29.993 53.9958Z" fill="#EBEBEB"/>
<path d="M33.0023 15.0035H26.998V21.0078H33.0023V15.0035Z" fill="#EBEBEB"/>
</svg>
