<?xml version="1.0" standalone="no"?>
<!DOCTYPE svg PUBLIC "-//W3C//DTD SVG 20010904//EN"
 "http://www.w3.org/TR/2001/REC-SVG-20010904/DTD/svg10.dtd">
<svg version="1.0" xmlns="http://www.w3.org/2000/svg"
 width="300.000000pt" height="300.000000pt" viewBox="0 0 300.000000 300.000000"
 preserveAspectRatio="xMidYMid meet">
<metadata>
Created by potrace 1.11, written by Peter Selinger 2001-2013
</metadata>
<g transform="translate(0.000000,300.000000) scale(0.100000,-0.100000)"
fill="#000000" stroke="none">
<path d="M1349 2576 c-2 -2 -30 -7 -62 -11 -151 -17 -352 -98 -455 -184 l-64
-53 -133 -2 c-95 -1 -138 -5 -147 -14 -10 -10 -13 -96 -14 -390 -1 -207 2
-384 7 -393 8 -16 54 -31 64 -21 2 3 -3 10 -12 17 -15 11 -17 46 -18 329 -1
366 1 393 24 406 10 5 73 10 142 11 111 2 126 4 144 23 88 93 303 176 520 202
55 7 240 6 295 -1 205 -25 380 -91 494 -185 l48 -40 123 0 c99 0 127 -3 139
-16 18 -17 17 -5 17 -423 0 -240 -3 -287 -16 -307 -16 -24 -16 -24 17 -19 18
3 38 11 45 16 9 8 12 101 13 393 0 343 -1 385 -16 397 -12 9 -55 14 -150 15
l-134 2 -57 49 c-96 82 -232 143 -398 178 -73 16 -403 33 -416 21z"/>
<path d="M1285 2465 c-196 -34 -329 -88 -428 -175 l-45 -40 -130 0 c-125 0
-131 -1 -137 -21 -10 -29 -10 -648 -1 -677 6 -17 15 -22 42 -22 32 0 35 2 28
23 -39 117 38 271 155 305 24 8 125 12 280 12 221 0 245 -2 284 -20 50 -24
112 -81 134 -124 18 -34 23 -126 9 -168 -7 -26 -6 -28 19 -28 26 0 27 1 19 43
-17 96 6 168 72 226 74 65 109 71 386 71 234 0 245 -1 294 -24 107 -50 166
-183 130 -293 -8 -26 11 -32 32 -11 17 17 17 679 0 696 -8 8 -53 12 -136 12
l-124 0 -46 41 c-84 74 -251 143 -422 175 -64 11 -344 11 -415 -1z"/>
<path d="M629 1436 c-40 -14 -85 -46 -105 -75 -13 -17 23 -18 971 -18 905 0
984 1 976 16 -14 26 -43 49 -90 69 -41 19 -74 20 -879 20 -653 0 -845 -2 -873
-12z"/>
<path d="M74 1249 c-12 -4 -31 -20 -44 -36 -18 -23 -21 -37 -18 -79 4 -49 13
-68 99 -208 17 -27 29 -58 27 -70 -3 -24 -21 -25 -24 -1 -1 9 -12 24 -23 34
-18 15 -34 18 -85 12 -5 -1 -6 -20 -3 -43 17 -126 174 -182 228 -81 30 56 14
108 -85 268 -36 59 -43 95 -18 103 6 2 12 -4 12 -13 0 -36 47 -56 99 -44 12 3
15 -24 17 -160 2 -204 2 -203 124 -204 58 0 84 4 90 13 7 11 11 11 25 0 21
-17 157 -15 185 3 17 10 22 9 30 -2 7 -12 28 -14 91 -13 46 2 86 7 89 12 4 7
18 4 37 -5 28 -14 61 -12 64 4 1 3 3 42 4 86 2 44 3 85 4 90 1 6 15 12 32 13
73 6 99 47 99 156 0 66 -3 78 -26 105 -37 45 -59 53 -141 58 -64 4 -73 2 -73
-12 0 -16 -2 -16 -23 -2 -32 21 -187 22 -187 1 0 -12 -5 -12 -30 1 -18 9 -56
15 -105 15 -64 0 -75 -2 -76 -17 -1 -10 -3 -108 -4 -218 -1 -110 -3 -201 -4
-203 0 -2 -8 3 -15 11 -9 8 -28 13 -45 11 l-31 -4 0 93 c-2 275 -4 294 -30
316 -27 21 -67 21 -82 -1 -5 -7 -7 -32 -6 -55 2 -22 0 -39 -4 -36 -5 2 -8 10
-8 17 0 19 -68 86 -88 87 -9 1 -26 3 -37 4 -11 1 -30 -1 -41 -6z m604 -276 c1
-170 1 -175 -17 -159 -11 10 -33 18 -50 18 -31 1 -31 1 -31 59 0 57 0 58 29
57 37 -1 51 8 51 36 0 30 -32 66 -59 66 -11 0 -21 3 -22 8 -1 4 -2 25 -3 48
l-3 40 52 2 51 1 2 -176z m203 170 c7 -63 6 -333 -1 -333 -6 0 -10 4 -10 9 0
6 -17 11 -37 13 l-38 3 -3 58 c-2 31 1 57 5 56 4 -1 23 -1 41 0 28 1 32 4 32
29 0 35 -30 72 -58 72 -22 0 -30 24 -24 71 3 23 9 26 48 27 24 1 44 -1 45 -5z
m141 -54 c-2 -48 -11 -68 -22 -48 -6 12 -6 28 -1 99 1 11 4 11 13 2 6 -6 11
-30 10 -53z"/>
<path d="M1295 1252 c-11 -2 -23 -8 -26 -13 -3 -5 -4 -114 -2 -242 3 -211 5
-234 22 -251 17 -17 65 -26 76 -14 3 3 6 23 7 46 1 39 18 51 18 14 1 -28 36
-62 64 -62 21 0 28 6 33 30 3 17 9 30 14 30 5 0 8 -3 7 -7 -1 -5 4 -18 12 -30
16 -25 67 -32 86 -13 7 7 19 6 38 -4 26 -13 66 -12 66 3 2 21 12 88 15 99 7
20 35 14 36 -8 1 -11 3 -24 4 -30 1 -5 3 -14 4 -18 2 -17 36 -49 57 -54 35 -9
54 9 49 45 -4 29 -20 150 -30 222 -2 17 -7 53 -10 80 -3 28 -9 64 -12 80 l-5
30 24 -22 c13 -13 30 -23 36 -23 7 0 12 -12 13 -27 0 -16 2 -99 4 -186 2 -131
5 -161 19 -176 22 -24 46 -30 73 -20 21 7 21 13 21 201 0 106 1 198 1 203 1 6
13 12 29 13 15 1 28 6 30 11 2 5 16 2 33 -7 29 -17 29 -17 30 -117 1 -225 5
-272 22 -290 17 -17 72 -24 85 -11 4 4 7 98 8 209 l0 202 30 0 29 0 2 -140 c1
-77 2 -160 3 -185 0 -28 8 -54 19 -69 18 -23 25 -25 101 -24 45 1 87 7 94 12
9 7 16 7 24 -1 14 -14 41 -19 64 -12 13 4 18 19 20 62 4 52 5 54 12 25 5 -17
20 -45 35 -63 22 -27 30 -30 59 -24 17 3 32 12 32 18 0 6 -14 47 -30 91 -35
95 -36 106 -10 130 19 17 38 86 31 110 -5 18 9 -1 69 -95 57 -88 72 -132 51
-145 -5 -3 -13 5 -17 17 -8 27 -41 58 -61 58 -8 0 -23 -5 -34 -11 -16 -8 -19
-17 -14 -47 11 -73 70 -126 141 -126 39 0 51 5 70 28 47 54 44 109 -10 196
-84 133 -97 160 -91 180 7 22 25 27 25 7 0 -17 41 -54 58 -51 6 1 21 2 32 3
45 3 13 105 -45 144 -60 41 -141 24 -167 -35 l-12 -26 -21 23 c-40 45 -71 57
-141 56 -51 -1 -70 -5 -80 -18 -11 -16 -13 -17 -19 -2 -5 14 -21 16 -88 15
-45 0 -88 -5 -96 -10 -8 -5 -16 -4 -21 3 -9 16 -207 16 -226 0 -10 -8 -14 -8
-14 0 0 13 -198 15 -219 2 -9 -6 -11 -16 -6 -32 7 -21 4 -20 -19 9 -23 27 -35
32 -69 32 -23 0 -47 -4 -53 -8 -6 -4 -17 -41 -24 -82 -6 -41 -13 -86 -16 -100
-2 -14 -7 -45 -10 -70 -3 -25 -10 -63 -14 -85 l-8 -40 -2 45 c-1 25 -3 102 -3
171 -2 110 -5 130 -21 148 -16 18 -29 21 -65 19 -51 -3 -45 8 -72 -148 l-12
-75 -13 50 c-6 28 -15 66 -18 86 -12 66 -55 102 -111 91z m1222 -274 c0 -95
-3 -168 -8 -168 -5 0 -9 4 -9 9 0 6 -17 11 -37 13 l-38 3 0 54 c0 50 2 54 25
58 42 6 50 11 50 36 0 31 -31 67 -58 67 -15 0 -21 8 -24 33 -6 59 -2 66 50 64
l47 -2 2 -167z m136 129 c-1 -15 -1 -36 -2 -47 -1 -11 -7 -20 -14 -20 -8 0
-12 15 -11 48 2 57 1 55 16 50 7 -3 12 -16 11 -31z"/>
<path d="M469 693 c-2 -116 2 -198 11 -207 5 -5 10 -7 10 -3 0 3 10 3 23 -2
64 -25 413 -35 577 -18 75 8 202 25 237 31 27 5 100 17 126 21 12 2 42 6 67 9
25 4 74 11 110 17 73 12 92 14 240 33 189 24 469 16 618 -18 21 -5 22 -3 22
80 0 76 -2 85 -17 82 -15 -3 -18 -14 -18 -58 0 -62 6 -59 -100 -44 -75 11
-383 12 -490 1 -44 -4 -123 -14 -175 -23 -52 -8 -111 -17 -130 -20 -19 -3 -93
-14 -165 -26 -175 -27 -176 -28 -205 -32 -144 -20 -509 -27 -605 -12 -87 13
-95 17 -96 39 0 12 -2 56 -2 97 -2 62 -5 75 -19 78 -14 3 -18 -3 -19 -25z"/>
<path d="M1948 465 c-2 -1 -39 -6 -82 -10 -43 -4 -88 -9 -100 -11 -12 -2 -43
-7 -71 -10 -27 -4 -52 -8 -54 -10 -2 -2 193 -4 435 -4 285 1 433 4 423 10 -9
5 -32 12 -50 15 -19 3 -59 9 -89 14 -50 8 -404 13 -412 6z"/>
</g>
</svg>
